<svg viewBox="0 0 800 500" xmlns="http://www.w3.org/2000/svg">

  <!-- ── FLOOR ── -->
  <rect x="0" y="390" width="800" height="110" fill="#c8a86b"/>
  <rect x="100" y="390" width="2" height="110" fill="#b89050" opacity="0.3"/>
  <rect x="250" y="390" width="2" height="110" fill="#b89050" opacity="0.3"/>
  <rect x="400" y="390" width="2" height="110" fill="#b89050" opacity="0.3"/>
  <rect x="550" y="390" width="2" height="110" fill="#b89050" opacity="0.3"/>
  <rect x="700" y="390" width="2" height="110" fill="#b89050" opacity="0.3"/>

  <!-- ── IVORY RUG ── -->
  <rect x="180" y="330" width="440" height="60"  fill="#f0ece4"/>
  <rect x="184" y="334" width="432" height="52"  fill="#e8e4dc"/>
  <!-- rug border pattern -->
  <rect x="184" y="334" width="432" height="4"   fill="#d0ccc4"/>
  <rect x="184" y="382" width="432" height="4"   fill="#d0ccc4"/>
  <rect x="184" y="334" width="4"   height="52"  fill="#d0ccc4"/>
  <rect x="612" y="334" width="4"   height="52"  fill="#d0ccc4"/>

  <!-- ── BACK WALL ── -->
  <rect x="0" y="0" width="800" height="390" fill="#f0ebe2"/>

  <!-- ── CEILING ── -->
  <rect x="0" y="0" width="800" height="60" fill="#e8e4dc"/>
  <rect x="0" y="56" width="800" height="6"  fill="#d8d4cc"/>

  <!-- ── SIDE WALLS ── -->
  <rect x="0"   y="0" width="50"  height="500" fill="#e0dcd4"/>
  <rect x="750" y="0" width="50"  height="500" fill="#e0dcd4"/>

  <!-- ── WAINSCOTING ── -->
  <rect x="50" y="310" width="700" height="80" fill="#e8e4de"/>
  <rect x="50" y="308" width="700" height="5"  fill="#d8d4ce"/>

  <!-- ══ LEFT BOOKSHELF (floor to ceiling) ══ -->
  <rect x="50" y="60" width="160" height="330" fill="#8B6C4A"/>
  <!-- shelf boards -->
  <rect x="50" y="60"  width="160" height="6"  fill="#a07840"/>
  <rect x="50" y="118" width="160" height="6"  fill="#a07840"/>
  <rect x="50" y="176" width="160" height="6"  fill="#a07840"/>
  <rect x="50" y="234" width="160" height="6"  fill="#a07840"/>
  <rect x="50" y="292" width="160" height="6"  fill="#a07840"/>
  <rect x="50" y="350" width="160" height="6"  fill="#a07840"/>
  <rect x="50" y="386" width="160" height="6"  fill="#a07840"/>
  <!-- books row 1 -->
  <rect x="54" y="66"  width="12" height="50"  fill="#9D74A1"/>
  <rect x="68" y="68"  width="10" height="48"  fill="#E8956D"/>
  <rect x="80" y="64"  width="14" height="52"  fill="#7AB8D4"/>
  <rect x="96" y="68"  width="10" height="48"  fill="#E8C97A"/>
  <rect x="108" y="66" width="12" height="50"  fill="#E8A0A0"/>
  <rect x="122" y="64" width="14" height="52"  fill="#9D74A1"/>
  <rect x="138" y="68" width="10" height="48"  fill="#E8956D"/>
  <rect x="150" y="66" width="12" height="50"  fill="#7AB8D4"/>
  <rect x="164" y="64" width="14" height="52"  fill="#E8C97A"/>
  <rect x="180" y="68" width="10" height="48"  fill="#E8A0A0"/>
  <!-- books row 2 -->
  <rect x="54" y="124" width="10" height="50"  fill="#E8956D"/>
  <rect x="66" y="126" width="14" height="48"  fill="#9D74A1"/>
  <rect x="82" y="122" width="12" height="52"  fill="#E8C97A"/>
  <rect x="96" y="126" width="10" height="48"  fill="#7AB8D4"/>
  <rect x="108" y="124" width="14" height="50" fill="#E8A0A0"/>
  <rect x="124" y="122" width="12" height="52" fill="#E8956D"/>
  <rect x="138" y="126" width="10" height="48" fill="#9D74A1"/>
  <rect x="150" y="124" width="14" height="50" fill="#E8C97A"/>
  <rect x="166" y="122" width="12" height="52" fill="#7AB8D4"/>
  <rect x="180" y="126" width="10" height="48" fill="#E8A0A0"/>
  <!-- books row 3 -->
  <rect x="54" y="182" width="14" height="50"  fill="#7AB8D4"/>
  <rect x="70" y="184" width="10" height="48"  fill="#E8C97A"/>
  <rect x="82" y="180" width="12" height="52"  fill="#9D74A1"/>
  <rect x="96" y="184" width="14" height="48"  fill="#E8956D"/>
  <rect x="112" y="182" width="10" height="50" fill="#E8A0A0"/>
  <rect x="124" y="180" width="12" height="52" fill="#7AB8D4"/>
  <rect x="138" y="184" width="14" height="48" fill="#E8C97A"/>
  <rect x="154" y="182" width="10" height="50" fill="#9D74A1"/>
  <rect x="166" y="180" width="12" height="52" fill="#E8956D"/>
  <rect x="180" y="184" width="10" height="48" fill="#E8A0A0"/>
  <!-- books row 4 -->
  <rect x="54" y="240" width="12" height="50"  fill="#E8A0A0"/>
  <rect x="68" y="242" width="14" height="48"  fill="#9D74A1"/>
  <rect x="84" y="238" width="10" height="52"  fill="#E8956D"/>
  <rect x="96" y="242" width="12" height="48"  fill="#7AB8D4"/>
  <rect x="110" y="240" width="14" height="50" fill="#E8C97A"/>
  <rect x="126" y="238" width="10" height="52" fill="#E8A0A0"/>
  <rect x="138" y="242" width="12" height="48" fill="#9D74A1"/>
  <rect x="152" y="240" width="14" height="50" fill="#E8956D"/>
  <rect x="168" y="238" width="10" height="52" fill="#7AB8D4"/>
  <rect x="180" y="242" width="10" height="48" fill="#E8C97A"/>
  <!-- books row 5 -->
  <rect x="54" y="298" width="10" height="50"  fill="#E8C97A"/>
  <rect x="66" y="300" width="12" height="48"  fill="#E8A0A0"/>
  <rect x="80" y="296" width="14" height="52"  fill="#9D74A1"/>
  <rect x="96" y="300" width="10" height="48"  fill="#E8956D"/>
  <rect x="108" y="298" width="12" height="50" fill="#7AB8D4"/>
  <rect x="122" y="296" width="14" height="52" fill="#E8C97A"/>
  <rect x="138" y="300" width="10" height="48" fill="#E8A0A0"/>
  <rect x="150" y="298" width="12" height="50" fill="#9D74A1"/>
  <rect x="164" y="296" width="14" height="52" fill="#E8956D"/>
  <rect x="180" y="300" width="10" height="48" fill="#7AB8D4"/>
  <!-- books row 6 -->
  <rect x="54" y="356" width="12" height="28"  fill="#9D74A1"/>
  <rect x="68" y="358" width="10" height="26"  fill="#E8956D"/>
  <rect x="80" y="354" width="14" height="30"  fill="#7AB8D4"/>
  <rect x="96" y="358" width="10" height="26"  fill="#E8C97A"/>
  <rect x="108" y="356" width="12" height="28" fill="#E8A0A0"/>
  <rect x="122" y="354" width="14" height="30" fill="#9D74A1"/>
  <rect x="138" y="358" width="10" height="26" fill="#E8956D"/>
  <rect x="150" y="356" width="12" height="28" fill="#7AB8D4"/>
  <rect x="164" y="354" width="14" height="30" fill="#E8C97A"/>
  <rect x="180" y="358" width="10" height="26" fill="#E8A0A0"/>

  <!-- ══ RIGHT BOOKSHELF (floor to ceiling) ══ -->
  <rect x="590" y="60" width="160" height="330" fill="#8B6C4A"/>
  <rect x="590" y="60"  width="160" height="6"  fill="#a07840"/>
  <rect x="590" y="118" width="160" height="6"  fill="#a07840"/>
  <rect x="590" y="176" width="160" height="6"  fill="#a07840"/>
  <rect x="590" y="234" width="160" height="6"  fill="#a07840"/>
  <rect x="590" y="292" width="160" height="6"  fill="#a07840"/>
  <rect x="590" y="350" width="160" height="6"  fill="#a07840"/>
  <rect x="590" y="386" width="160" height="6"  fill="#a07840"/>
  <!-- books row 1 -->
  <rect x="594" y="66"  width="12" height="50"  fill="#E8956D"/>
  <rect x="608" y="68"  width="10" height="48"  fill="#9D74A1"/>
  <rect x="620" y="64"  width="14" height="52"  fill="#E8C97A"/>
  <rect x="636" y="68"  width="10" height="48"  fill="#7AB8D4"/>
  <rect x="648" y="66"  width="12" height="50"  fill="#E8A0A0"/>
  <rect x="662" y="64"  width="14" height="52"  fill="#E8956D"/>
  <rect x="678" y="68"  width="10" height="48"  fill="#9D74A1"/>
  <rect x="690" y="66"  width="12" height="50"  fill="#E8C97A"/>
  <rect x="704" y="64"  width="14" height="52"  fill="#7AB8D4"/>
  <rect x="720" y="68"  width="10" height="48"  fill="#E8A0A0"/>
  <!-- books row 2 -->
  <rect x="594" y="124" width="14" height="50"  fill="#7AB8D4"/>
  <rect x="610" y="126" width="10" height="48"  fill="#E8A0A0"/>
  <rect x="622" y="122" width="12" height="52"  fill="#9D74A1"/>
  <rect x="636" y="126" width="14" height="48"  fill="#E8C97A"/>
  <rect x="652" y="124" width="10" height="50"  fill="#E8956D"/>
  <rect x="664" y="122" width="12" height="52"  fill="#7AB8D4"/>
  <rect x="678" y="126" width="14" height="48"  fill="#E8A0A0"/>
  <rect x="694" y="124" width="10" height="50"  fill="#9D74A1"/>
  <rect x="706" y="122" width="12" height="52"  fill="#E8C97A"/>
  <rect x="720" y="126" width="10" height="48"  fill="#E8956D"/>
  <!-- books row 3 -->
  <rect x="594" y="182" width="10" height="50"  fill="#E8C97A"/>
  <rect x="606" y="184" width="14" height="48"  fill="#9D74A1"/>
  <rect x="622" y="180" width="12" height="52"  fill="#E8956D"/>
  <rect x="636" y="184" width="10" height="48"  fill="#E8A0A0"/>
  <rect x="648" y="182" width="14" height="50"  fill="#7AB8D4"/>
  <rect x="664" y="180" width="12" height="52"  fill="#E8C97A"/>
  <rect x="678" y="184" width="10" height="48"  fill="#9D74A1"/>
  <rect x="690" y="182" width="14" height="50"  fill="#E8956D"/>
  <rect x="706" y="180" width="12" height="52"  fill="#E8A0A0"/>
  <rect x="720" y="184" width="10" height="48"  fill="#7AB8D4"/>
  <!-- books row 4 -->
  <rect x="594" y="240" width="12" height="50"  fill="#E8A0A0"/>
  <rect x="608" y="242" width="10" height="48"  fill="#E8956D"/>
  <rect x="620" y="238" width="14" height="52"  fill="#E8C97A"/>
  <rect x="636" y="242" width="12" height="48"  fill="#9D74A1"/>
  <rect x="650" y="240" width="10" height="50"  fill="#7AB8D4"/>
  <rect x="662" y="238" width="14" height="52"  fill="#E8A0A0"/>
  <rect x="678" y="242" width="12" height="48"  fill="#E8956D"/>
  <rect x="692" y="240" width="10" height="50"  fill="#E8C97A"/>
  <rect x="704" y="238" width="14" height="52"  fill="#9D74A1"/>
  <rect x="720" y="242" width="10" height="48"  fill="#7AB8D4"/>
  <!-- books row 5 -->
  <rect x="594" y="298" width="14" height="50"  fill="#9D74A1"/>
  <rect x="610" y="300" width="10" height="48"  fill="#7AB8D4"/>
  <rect x="622" y="296" width="12" height="52"  fill="#E8A0A0"/>
  <rect x="636" y="300" width="14" height="48"  fill="#E8956D"/>
  <rect x="652" y="298" width="10" height="50"  fill="#E8C97A"/>
  <rect x="664" y="296" width="12" height="52"  fill="#9D74A1"/>
  <rect x="678" y="300" width="14" height="48"  fill="#7AB8D4"/>
  <rect x="694" y="298" width="10" height="50"  fill="#E8A0A0"/>
  <rect x="706" y="296" width="12" height="52"  fill="#E8956D"/>
  <rect x="720" y="300" width="10" height="48"  fill="#E8C97A"/>
  <!-- books row 6 -->
  <rect x="594" y="356" width="10" height="28"  fill="#E8956D"/>
  <rect x="606" y="358" width="14" height="26"  fill="#7AB8D4"/>
  <rect x="622" y="354" width="12" height="30"  fill="#E8C97A"/>
  <rect x="636" y="358" width="10" height="26"  fill="#9D74A1"/>
  <rect x="648" y="356" width="14" height="28"  fill="#E8A0A0"/>
  <rect x="664" y="354" width="12" height="30"  fill="#E8956D"/>
  <rect x="678" y="358" width="10" height="26"  fill="#7AB8D4"/>
  <rect x="690" y="356" width="14" height="28"  fill="#E8C97A"/>
  <rect x="706" y="354" width="12" height="30"  fill="#9D74A1"/>
  <rect x="720" y="358" width="10" height="26"  fill="#E8A0A0"/>

  <!-- ══ STONE FIREPLACE (centered) ══ -->
  <rect x="270" y="60" width="260" height="270" fill="#d0c8c0"/>
  <!-- stones row 1 -->
  <rect x="278" y="68"  width="48" height="22"  fill="#c8c0b8"/>
  <rect x="330" y="68"  width="40" height="22"  fill="#beb6ae"/>
  <rect x="374" y="68"  width="50" height="22"  fill="#c8c0b8"/>
  <rect x="428" y="68"  width="44" height="22"  fill="#beb6ae"/>
  <rect x="476" y="68"  width="46" height="22"  fill="#c8c0b8"/>
  <!-- row 2 -->
  <rect x="278" y="94"  width="42" height="22"  fill="#beb6ae"/>
  <rect x="324" y="94"  width="52" height="22"  fill="#c8c0b8"/>
  <rect x="380" y="94"  width="44" height="22"  fill="#beb6ae"/>
  <rect x="428" y="94"  width="48" height="22"  fill="#c8c0b8"/>
  <rect x="480" y="94"  width="42" height="22"  fill="#beb6ae"/>
  <!-- row 3 -->
  <rect x="278" y="120" width="50" height="22"  fill="#c8c0b8"/>
  <rect x="332" y="120" width="42" height="22"  fill="#beb6ae"/>
  <rect x="378" y="120" width="48" height="22"  fill="#c8c0b8"/>
  <rect x="430" y="120" width="44" height="22"  fill="#beb6ae"/>
  <rect x="478" y="120" width="44" height="22"  fill="#c8c0b8"/>
  <!-- row 4 -->
  <rect x="278" y="146" width="44" height="22"  fill="#beb6ae"/>
  <rect x="326" y="146" width="50" height="22"  fill="#c8c0b8"/>
  <rect x="380" y="146" width="42" height="22"  fill="#beb6ae"/>
  <rect x="426" y="146" width="50" height="22"  fill="#c8c0b8"/>
  <rect x="480" y="146" width="42" height="22"  fill="#beb6ae"/>
  <!-- fireplace opening -->
  <rect x="306" y="172" width="188" height="120" fill="#1a0a2e"/>
  <!-- hearth -->
  <rect x="294" y="290" width="212" height="14"  fill="#b8b0a8"/>
  <!-- mantle -->
  <rect x="262" y="162" width="276" height="14"  fill="#c8b8a8"/>
  <rect x="266" y="152" width="268" height="14"  fill="#d8c8b8"/>
  <!-- mantle items -->
  <rect x="278" y="132" width="16"  height="22"  fill="#9D74A1" opacity="0.8"/>
  <rect x="302" y="136" width="12"  height="18"  fill="#E8C97A" opacity="0.9"/>
  <!-- clock -->
  <rect x="384" y="128" width="32"  height="26"  fill="#8B6C4A"/>
  <rect x="388" y="132" width="24"  height="18"  fill="#e8e4dc"/>
  <rect x="399" y="135" width="2"   height="8"   fill="#555"/>
  <rect x="399" y="135" width="6"   height="2"   fill="#555"/>
  <rect x="462" y="136" width="12"  height="18"  fill="#E8C97A" opacity="0.9"/>
  <rect x="482" y="132" width="16"  height="22"  fill="#9D74A1" opacity="0.8"/>
  <!-- flames -->
  <rect x="326" y="256" width="18"  height="32"  fill="#E8956D" opacity="0.9"/>
  <rect x="348" y="244" width="22"  height="44"  fill="#E8C97A" opacity="0.9"/>
  <rect x="374" y="238" width="28"  height="50"  fill="#E8C97A" opacity="0.9"/>
  <rect x="406" y="246" width="20"  height="42"  fill="#E8956D" opacity="0.9"/>
  <rect x="430" y="258" width="16"  height="30"  fill="#E8956D" opacity="0.8"/>
  <rect x="356" y="232" width="16"  height="16"  fill="white"   opacity="0.25"/>
  <rect x="380" y="226" width="14"  height="14"  fill="white"   opacity="0.2"/>

  <!-- ══ SOFA (in front of fireplace) ══ -->
  <rect x="200" y="340" width="400" height="50"  fill="#9D74A1" opacity="0.7"/>
  <rect x="200" y="334" width="400" height="12"  fill="#7a5080" opacity="0.8"/>
  <!-- cushions -->
  <rect x="208" y="342" width="88"  height="40"  fill="#8a4070" opacity="0.5"/>
  <rect x="304" y="342" width="88"  height="40"  fill="#8a4070" opacity="0.5"/>
  <rect x="400" y="342" width="88"  height="40"  fill="#8a4070" opacity="0.5"/>
  <rect x="496" y="342" width="96"  height="40"  fill="#8a4070" opacity="0.5"/>
  <!-- sofa arms -->
  <rect x="200" y="334" width="20"  height="56"  fill="#7a5080" opacity="0.8"/>
  <rect x="580" y="334" width="20"  height="56"  fill="#7a5080" opacity="0.8"/>

  <!-- ── EXIT BUTTON ── -->
  <a onclick="goTo('foyer-right')" style="cursor:pointer">
    <rect x="16" y="452" width="72" height="26" fill="#0d1b2a" stroke="#E8C97A" stroke-width="2" rx="2"/>
    <text x="52" y="470" text-anchor="middle" font-family="monospace" font-size="11" fill="#E8C97A">[ EXIT ]</text>
  </a>

</svg>